<svg t="1666081983156" class="icon" viewBox="0 0 1024 1024" version="1.1" xmlns="http://www.w3.org/2000/svg" p-id="1369" width="200" height="200"><path d="M850.4 776.59H591.8c-1.72 12.07-3.45 24.13-3.45 37.93 0 75.85 75.85 75.85 75.85 75.85 20.69 0 37.93 8.62 37.93 18.96 0 10.35-17.24 18.96-37.93 18.96H362.5c-20.69 0-37.93-8.62-37.93-18.96s17.24-18.96 37.93-18.96c0 0 75.85 0 75.85-75.85 0-13.79-1.72-25.86-3.45-37.93H174.6c-41.37 0-75.85-34.48-75.85-75.85V174.92c0-41.37 34.48-75.85 75.85-75.85h677.52c41.37 0 75.85 34.48 75.85 75.85v525.81c-1.72 41.38-36.2 75.86-77.57 75.86z m0-601.67H174.6V626.6h677.52V174.92h-1.72z" p-id="1370"></path><path d="M483 558.61c-9.56 0-19.14-3.36-26.85-10.17L333.61 440.19c-16.79-14.84-18.38-40.48-3.54-57.27 14.84-16.79 40.48-18.38 57.27-3.54l92.84 82.02 190.34-205.48c15.23-16.44 40.9-17.42 57.34-2.19s17.42 40.9 2.19 57.34L512.78 545.61c-7.98 8.62-18.86 13-29.78 13z" p-id="1371"></path></svg>