<svg t="1666082001819" class="icon" viewBox="0 0 1024 1024" version="1.1" xmlns="http://www.w3.org/2000/svg" p-id="1659" width="200" height="200"><path d="M850.4 776.59H591.8c-1.72 12.07-3.45 24.13-3.45 37.93 0 75.85 75.85 75.85 75.85 75.85 20.69 0 37.93 8.62 37.93 18.96 0 10.35-17.24 18.96-37.93 18.96H362.5c-20.69 0-37.93-8.62-37.93-18.96 0-10.34 17.24-18.96 37.93-18.96 0 0 75.85 0 75.85-75.85 0-13.79-1.72-25.86-3.45-37.93H174.6c-41.37 0-75.85-34.48-75.85-75.85V174.92c0-41.37 34.48-75.85 75.85-75.85h677.52c41.37 0 75.85 34.48 75.85 75.85v525.81c-1.72 41.38-36.2 75.86-77.57 75.86z m0-601.67H174.6V626.6h677.52V174.92h-1.72z m0 0" p-id="1660"></path><path d="M568.67 393.79l82.02-82.02c15.62-15.62 15.62-40.95 0-56.57-15.62-15.62-40.95-15.62-56.57 0l-82.02 82.02-82.02-82.02c-15.62-15.62-40.95-15.62-56.57 0-15.62 15.62-15.62 40.95 0 56.57l82.02 82.02-82.02 82.02c-15.62 15.62-15.62 40.95 0 56.57 7.81 7.81 18.05 11.72 28.28 11.72s20.47-3.91 28.28-11.72l82.02-82.02 82.02 82.02c7.81 7.81 18.05 11.72 28.28 11.72s20.47-3.91 28.28-11.72c15.62-15.62 15.62-40.95 0-56.57l-82-82.02z" p-id="1661"></path></svg>